<svg xmlns="http://www.w3.org/2000/svg" xmlns:xlink="http://www.w3.org/1999/xlink" viewBox="0 0 64 64" id="feedback">
  <defs>
    <linearGradient id="a" x1="16" x2="48" y1="53" y2="53" gradientUnits="userSpaceOnUse">
      <stop offset="0" stop-color="#54a5ff"></stop>
      <stop offset="1" stop-color="#8ad3fe"></stop>
    </linearGradient>
    <linearGradient xlink:href="#a" id="b" y1="17" y2="17"></linearGradient>
  </defs>
  <path fill="#d7e9f7" d="M61 37v2a10 10 0 0 1-10 10H13A10 10 0 0 1 3 39v-2a10 10 0 0 1 10-10h16l3-5 3 5h16a10 10 0 0 1 10 10Z"></path>
  <circle cx="32" cy="38" r="7" fill="#fe9661"></circle>
  <circle cx="14" cy="38" r="7" fill="#e0633d"></circle>
  <path fill="#e0633d" d="M29 39a1 1 0 0 1-1-1v-1a1 1 0 0 1 2 0v1a1 1 0 0 1-1 1zm6 0a1 1 0 0 1-1-1v-1a1 1 0 0 1 2 0v1a1 1 0 0 1-1 1z"></path>
  <path fill="#ffb369" d="M11 39a1 1 0 0 1-1-1v-1a1 1 0 0 1 2 0v1a1 1 0 0 1-1 1zm6 0a1 1 0 0 1-1-1v-1a1 1 0 0 1 2 0v1a1 1 0 0 1-1 1z"></path>
  <path fill="#e0633d" d="M33 42h-2a1 1 0 0 1 0-2h2a1 1 0 0 1 0 2Z"></path>
  <path fill="#ffb369" d="M15.5 42.5a1 1 0 0 1-.71-.29 1.13 1.13 0 0 0-1.58 0 1 1 0 0 1-1.42-1.42 3.2 3.2 0 0 1 4.42 0 1 1 0 0 1 0 1.42 1 1 0 0 1-.71.29Z"></path>
  <circle cx="50" cy="38" r="7" fill="#ffb369"></circle>
  <path fill="#e0633d" d="M47 39a1 1 0 0 1-1-1v-1a1 1 0 0 1 2 0v1a1 1 0 0 1-1 1zm6 0a1 1 0 0 1-1-1v-1a1 1 0 0 1 2 0v1a1 1 0 0 1-1 1zm-3 3.5a3.15 3.15 0 0 1-2.21-.91 1 1 0 0 1 1.42-1.42 1.15 1.15 0 0 0 1.58 0 1 1 0 0 1 1.42 1.42 3.15 3.15 0 0 1-2.21.91z"></path>
  <path fill="url(#a)" d="M48 49v2a6 6 0 0 1-6 6H22a6 6 0 0 1-6-6v-2h4v2a2.05 2.05 0 0 0 .34 1.12 2.31 2.31 0 0 0 .54.54 2.21 2.21 0 0 0 .34.18A2 2 0 0 0 22 53h20a2 2 0 0 0 .78-.16 2.21 2.21 0 0 0 .34-.18 2.31 2.31 0 0 0 .54-.54A2.05 2.05 0 0 0 44 51v-2Z"></path>
  <path fill="url(#b)" d="M48 13v14h-4V13a2.05 2.05 0 0 0-.34-1.12 2.31 2.31 0 0 0-.54-.54 2.21 2.21 0 0 0-.34-.18A2 2 0 0 0 42 11h-4l-.46.9a2 2 0 0 1-1.78 1.1h-7.52a2 2 0 0 1-1-.3 2 2 0 0 1-.74-.8L26 11h-4a2 2 0 0 0-.78.16 2.21 2.21 0 0 0-.34.18 2.31 2.31 0 0 0-.54.54A2.05 2.05 0 0 0 20 13v14h-4V13a6 6 0 0 1 6-6h20a6 6 0 0 1 6 6Z"></path>
  <path fill="#f0f7fc" d="M44 13v14h-9l-3-5-3 5h-9V13a2.05 2.05 0 0 1 .34-1.12 2.31 2.31 0 0 1 .54-.54 2.21 2.21 0 0 1 .34-.18A2 2 0 0 1 22 11h4l.46.9a2 2 0 0 0 .74.8 2 2 0 0 0 1 .3h7.52a2 2 0 0 0 1.78-1.1l.5-.9h4a2 2 0 0 1 .78.16 2.21 2.21 0 0 1 .34.18 2.31 2.31 0 0 1 .54.54A2.05 2.05 0 0 1 44 13zm0 36v2a2.05 2.05 0 0 1-.34 1.12 2.31 2.31 0 0 1-.54.54 2.21 2.21 0 0 1-.34.18A2 2 0 0 1 42 53H22a2 2 0 0 1-.78-.16 2.21 2.21 0 0 1-.34-.18 2.31 2.31 0 0 1-.54-.54A2.05 2.05 0 0 1 20 51v-2z"></path>
</svg>
